<mxfile host="app.diagrams.net" modified="2020-07-13T14:13:26.249Z" agent="5.0 (Macintosh; Intel Mac OS X 10_14_6) AppleWebKit/537.36 (KHTML, like Gecko) Chrome/83.0.4103.116 Safari/537.36" etag="faTaHSiO-B9cQcQtB5jn" version="13.4.2" type="github">
  <diagram id="xJj5rBFeJ8_5vWX1x7kK" name="Page-1">
    <mxGraphModel dx="2893" dy="2233" grid="1" gridSize="10" guides="1" tooltips="1" connect="1" arrows="1" fold="1" page="1" pageScale="1" pageWidth="827" pageHeight="1169" math="0" shadow="0">
      <root>
        <mxCell id="0" />
        <mxCell id="1" parent="0" />
        <mxCell id="Q9DrgJj4XAbr20K1tqGO-10" value="" style="edgeStyle=orthogonalEdgeStyle;rounded=0;orthogonalLoop=1;jettySize=auto;html=1;" edge="1" parent="1" source="Q9DrgJj4XAbr20K1tqGO-8" target="Q9DrgJj4XAbr20K1tqGO-9">
          <mxGeometry relative="1" as="geometry" />
        </mxCell>
        <mxCell id="Q9DrgJj4XAbr20K1tqGO-32" style="edgeStyle=orthogonalEdgeStyle;rounded=0;orthogonalLoop=1;jettySize=auto;html=1;exitX=0.5;exitY=0;exitDx=0;exitDy=0;entryX=0.5;entryY=1;entryDx=0;entryDy=0;" edge="1" parent="1" source="Q9DrgJj4XAbr20K1tqGO-8" target="Q9DrgJj4XAbr20K1tqGO-26">
          <mxGeometry relative="1" as="geometry" />
        </mxCell>
        <mxCell id="Q9DrgJj4XAbr20K1tqGO-33" style="edgeStyle=orthogonalEdgeStyle;rounded=0;orthogonalLoop=1;jettySize=auto;html=1;exitX=0.5;exitY=0;exitDx=0;exitDy=0;" edge="1" parent="1" source="Q9DrgJj4XAbr20K1tqGO-8" target="Q9DrgJj4XAbr20K1tqGO-28">
          <mxGeometry relative="1" as="geometry" />
        </mxCell>
        <mxCell id="Q9DrgJj4XAbr20K1tqGO-34" style="edgeStyle=orthogonalEdgeStyle;rounded=0;orthogonalLoop=1;jettySize=auto;html=1;exitX=0.5;exitY=0;exitDx=0;exitDy=0;entryX=0.5;entryY=1;entryDx=0;entryDy=0;" edge="1" parent="1" source="Q9DrgJj4XAbr20K1tqGO-8" target="Q9DrgJj4XAbr20K1tqGO-30">
          <mxGeometry relative="1" as="geometry" />
        </mxCell>
        <mxCell id="Q9DrgJj4XAbr20K1tqGO-35" style="edgeStyle=orthogonalEdgeStyle;rounded=0;orthogonalLoop=1;jettySize=auto;html=1;exitX=1;exitY=0.5;exitDx=0;exitDy=0;entryX=0;entryY=0.5;entryDx=0;entryDy=0;" edge="1" parent="1" source="Q9DrgJj4XAbr20K1tqGO-8" target="Q9DrgJj4XAbr20K1tqGO-11">
          <mxGeometry relative="1" as="geometry" />
        </mxCell>
        <mxCell id="Q9DrgJj4XAbr20K1tqGO-36" style="edgeStyle=orthogonalEdgeStyle;rounded=0;orthogonalLoop=1;jettySize=auto;html=1;exitX=1;exitY=0.5;exitDx=0;exitDy=0;entryX=0;entryY=0.5;entryDx=0;entryDy=0;" edge="1" parent="1" source="Q9DrgJj4XAbr20K1tqGO-8" target="Q9DrgJj4XAbr20K1tqGO-13">
          <mxGeometry relative="1" as="geometry" />
        </mxCell>
        <mxCell id="Q9DrgJj4XAbr20K1tqGO-38" style="edgeStyle=orthogonalEdgeStyle;rounded=0;orthogonalLoop=1;jettySize=auto;html=1;exitX=1;exitY=0.5;exitDx=0;exitDy=0;entryX=0;entryY=0.5;entryDx=0;entryDy=0;" edge="1" parent="1" source="Q9DrgJj4XAbr20K1tqGO-8" target="Q9DrgJj4XAbr20K1tqGO-37">
          <mxGeometry relative="1" as="geometry" />
        </mxCell>
        <mxCell id="Q9DrgJj4XAbr20K1tqGO-8" value="角色" style="rounded=0;whiteSpace=wrap;html=1;" vertex="1" parent="1">
          <mxGeometry x="300" y="670" width="120" height="60" as="geometry" />
        </mxCell>
        <mxCell id="Q9DrgJj4XAbr20K1tqGO-16" value="" style="edgeStyle=orthogonalEdgeStyle;rounded=0;orthogonalLoop=1;jettySize=auto;html=1;" edge="1" parent="1" source="Q9DrgJj4XAbr20K1tqGO-9" target="Q9DrgJj4XAbr20K1tqGO-15">
          <mxGeometry relative="1" as="geometry">
            <Array as="points">
              <mxPoint x="680" y="700" />
              <mxPoint x="680" y="640" />
            </Array>
          </mxGeometry>
        </mxCell>
        <mxCell id="Q9DrgJj4XAbr20K1tqGO-20" style="edgeStyle=orthogonalEdgeStyle;rounded=0;orthogonalLoop=1;jettySize=auto;html=1;exitX=1;exitY=0.5;exitDx=0;exitDy=0;entryX=0;entryY=0.5;entryDx=0;entryDy=0;" edge="1" parent="1" source="Q9DrgJj4XAbr20K1tqGO-9" target="Q9DrgJj4XAbr20K1tqGO-18">
          <mxGeometry relative="1" as="geometry" />
        </mxCell>
        <mxCell id="Q9DrgJj4XAbr20K1tqGO-9" value="观察系统" style="rounded=0;whiteSpace=wrap;html=1;" vertex="1" parent="1">
          <mxGeometry x="520" y="670" width="120" height="60" as="geometry" />
        </mxCell>
        <mxCell id="Q9DrgJj4XAbr20K1tqGO-15" value="感知" style="rounded=0;whiteSpace=wrap;html=1;" vertex="1" parent="1">
          <mxGeometry x="720" y="610" width="120" height="60" as="geometry" />
        </mxCell>
        <mxCell id="Q9DrgJj4XAbr20K1tqGO-18" value="视野" style="rounded=0;whiteSpace=wrap;html=1;" vertex="1" parent="1">
          <mxGeometry x="720" y="710" width="120" height="60" as="geometry" />
        </mxCell>
        <mxCell id="Q9DrgJj4XAbr20K1tqGO-22" value="" style="edgeStyle=orthogonalEdgeStyle;rounded=0;orthogonalLoop=1;jettySize=auto;html=1;entryX=0;entryY=0.5;entryDx=0;entryDy=0;" edge="1" parent="1" source="Q9DrgJj4XAbr20K1tqGO-11" target="Q9DrgJj4XAbr20K1tqGO-21">
          <mxGeometry relative="1" as="geometry">
            <Array as="points">
              <mxPoint x="680" y="910" />
              <mxPoint x="680" y="860" />
            </Array>
          </mxGeometry>
        </mxCell>
        <mxCell id="Q9DrgJj4XAbr20K1tqGO-25" style="edgeStyle=orthogonalEdgeStyle;rounded=0;orthogonalLoop=1;jettySize=auto;html=1;exitX=1;exitY=0.5;exitDx=0;exitDy=0;entryX=0;entryY=0.5;entryDx=0;entryDy=0;" edge="1" parent="1" source="Q9DrgJj4XAbr20K1tqGO-11" target="Q9DrgJj4XAbr20K1tqGO-23">
          <mxGeometry relative="1" as="geometry" />
        </mxCell>
        <mxCell id="Q9DrgJj4XAbr20K1tqGO-11" value="运动系统" style="rounded=0;whiteSpace=wrap;html=1;" vertex="1" parent="1">
          <mxGeometry x="520" y="880" width="120" height="60" as="geometry" />
        </mxCell>
        <mxCell id="Q9DrgJj4XAbr20K1tqGO-21" value="移动" style="rounded=0;whiteSpace=wrap;html=1;" vertex="1" parent="1">
          <mxGeometry x="720" y="830" width="120" height="60" as="geometry" />
        </mxCell>
        <mxCell id="Q9DrgJj4XAbr20K1tqGO-23" value="脚印" style="rounded=0;whiteSpace=wrap;html=1;" vertex="1" parent="1">
          <mxGeometry x="720" y="920" width="120" height="60" as="geometry" />
        </mxCell>
        <mxCell id="Q9DrgJj4XAbr20K1tqGO-4" value="Classname" style="swimlane;fontStyle=1;align=center;verticalAlign=top;childLayout=stackLayout;horizontal=1;startSize=26;horizontalStack=0;resizeParent=1;resizeParentMax=0;resizeLast=0;collapsible=1;marginBottom=0;" vertex="1" parent="1">
          <mxGeometry x="280" y="-80" width="160" height="86" as="geometry" />
        </mxCell>
        <mxCell id="Q9DrgJj4XAbr20K1tqGO-5" value="+ field: type" style="text;strokeColor=none;fillColor=none;align=left;verticalAlign=top;spacingLeft=4;spacingRight=4;overflow=hidden;rotatable=0;points=[[0,0.5],[1,0.5]];portConstraint=eastwest;" vertex="1" parent="Q9DrgJj4XAbr20K1tqGO-4">
          <mxGeometry y="26" width="160" height="26" as="geometry" />
        </mxCell>
        <mxCell id="Q9DrgJj4XAbr20K1tqGO-6" value="" style="line;strokeWidth=1;fillColor=none;align=left;verticalAlign=middle;spacingTop=-1;spacingLeft=3;spacingRight=3;rotatable=0;labelPosition=right;points=[];portConstraint=eastwest;" vertex="1" parent="Q9DrgJj4XAbr20K1tqGO-4">
          <mxGeometry y="52" width="160" height="8" as="geometry" />
        </mxCell>
        <mxCell id="Q9DrgJj4XAbr20K1tqGO-7" value="+ method(type): type" style="text;strokeColor=none;fillColor=none;align=left;verticalAlign=top;spacingLeft=4;spacingRight=4;overflow=hidden;rotatable=0;points=[[0,0.5],[1,0.5]];portConstraint=eastwest;" vertex="1" parent="Q9DrgJj4XAbr20K1tqGO-4">
          <mxGeometry y="60" width="160" height="26" as="geometry" />
        </mxCell>
        <mxCell id="Q9DrgJj4XAbr20K1tqGO-13" value="攻击系统" style="rounded=0;whiteSpace=wrap;html=1;" vertex="1" parent="1">
          <mxGeometry x="520" y="1100" width="120" height="60" as="geometry" />
        </mxCell>
        <mxCell id="Q9DrgJj4XAbr20K1tqGO-42" style="edgeStyle=orthogonalEdgeStyle;rounded=0;orthogonalLoop=1;jettySize=auto;html=1;exitX=0.5;exitY=0;exitDx=0;exitDy=0;entryX=0.5;entryY=1;entryDx=0;entryDy=0;" edge="1" parent="1" source="Q9DrgJj4XAbr20K1tqGO-26" target="2">
          <mxGeometry relative="1" as="geometry" />
        </mxCell>
        <mxCell id="Q9DrgJj4XAbr20K1tqGO-43" style="edgeStyle=orthogonalEdgeStyle;rounded=0;orthogonalLoop=1;jettySize=auto;html=1;exitX=0.5;exitY=0;exitDx=0;exitDy=0;entryX=0.5;entryY=1;entryDx=0;entryDy=0;" edge="1" parent="1" source="Q9DrgJj4XAbr20K1tqGO-26" target="Q9DrgJj4XAbr20K1tqGO-40">
          <mxGeometry relative="1" as="geometry" />
        </mxCell>
        <mxCell id="Q9DrgJj4XAbr20K1tqGO-26" value="物品管理系统" style="rounded=0;whiteSpace=wrap;html=1;" vertex="1" parent="1">
          <mxGeometry x="80" y="520" width="120" height="60" as="geometry" />
        </mxCell>
        <mxCell id="Q9DrgJj4XAbr20K1tqGO-28" value="属性管理系统" style="rounded=0;whiteSpace=wrap;html=1;" vertex="1" parent="1">
          <mxGeometry x="300" y="520" width="120" height="60" as="geometry" />
        </mxCell>
        <mxCell id="Q9DrgJj4XAbr20K1tqGO-30" value="状态管理系统" style="rounded=0;whiteSpace=wrap;html=1;" vertex="1" parent="1">
          <mxGeometry x="520" y="520" width="120" height="60" as="geometry" />
        </mxCell>
        <mxCell id="2" value="装备" style="whiteSpace=wrap;html=1;" vertex="1" parent="1">
          <mxGeometry x="-30" y="350" width="120" height="60" as="geometry" />
        </mxCell>
        <mxCell id="Q9DrgJj4XAbr20K1tqGO-40" value="消耗品" style="whiteSpace=wrap;html=1;" vertex="1" parent="1">
          <mxGeometry x="170" y="350" width="120" height="60" as="geometry" />
        </mxCell>
        <mxCell id="Q9DrgJj4XAbr20K1tqGO-37" value="技能系统" style="rounded=0;whiteSpace=wrap;html=1;" vertex="1" parent="1">
          <mxGeometry x="520" y="1320" width="120" height="60" as="geometry" />
        </mxCell>
        <mxCell id="Q9DrgJj4XAbr20K1tqGO-44" value="&lt;br&gt;&lt;br&gt;扇形的视野范围（受属性影响）&lt;br&gt;&lt;br&gt;圆形的感知范围（受属性影响）&lt;br&gt;&lt;br&gt;三个方向的移动速度（向量定方向，速度受敏捷影响，配重小于0可起飞）&lt;br&gt;&lt;br&gt;脚印持续时间受角色配重影响（装备影响角色配重）&lt;br&gt;&lt;br&gt;脚印位于视野及感知重合范围内能被观察到（可用于追踪其他角色）&lt;br&gt;&lt;br&gt;角色的位置可产生脚印（每隔移动速度/常量值的时间在角色所处位置下刷一个脚印）" style="whiteSpace=wrap;html=1;" vertex="1" parent="1">
          <mxGeometry x="870" y="610" width="160" height="370" as="geometry" />
        </mxCell>
      </root>
    </mxGraphModel>
  </diagram>
</mxfile>
